<svg width="116" height="15" viewBox="0 0 116 15" fill="none" xmlns="http://www.w3.org/2000/svg">
<path d="M2.53601 9.97072C2.64043 9.97072 2.72994 10.0451 2.75977 10.1642C2.93879 11.3399 3.92336 12.1286 5.45988 12.1286C6.75772 12.1286 7.71245 11.5631 7.71245 10.5362C7.71245 9.43497 6.63837 9.21174 4.44547 8.78016C2.23765 8.36346 0.28344 7.66401 0.28344 5.00013C0.28344 2.67853 2.20782 1.0415 5.17644 1.0415C8.1749 1.0415 10.1142 2.54458 10.2634 4.91083C10.2783 5.04477 10.1739 5.14895 10.0396 5.14895H7.71245C7.60803 5.14895 7.51852 5.07453 7.48868 4.97036C7.29475 3.95838 6.45936 3.2738 5.17644 3.2738C3.98303 3.2738 3.1178 3.7798 3.1178 4.79177C3.1178 5.86328 4.14712 6.08651 6.32511 6.48833C8.57768 6.90503 10.5617 7.57472 10.5468 10.2088C10.5319 12.6644 8.50309 14.346 5.43004 14.346C2.1929 14.346 0.134259 12.6941 0 10.1791C0 10.0451 0.0895062 9.94096 0.223765 9.94096L2.53601 9.97072Z" fill="#343434"/>
<path d="M25.8375 1.14502H28.2095C28.3288 1.14502 28.4332 1.24919 28.4332 1.36825V8.73486C28.4332 10.8183 29.2089 11.9345 30.9991 11.9345C32.819 11.9345 33.5798 10.8183 33.5798 8.73486V1.36825C33.5798 1.24919 33.6842 1.14502 33.8036 1.14502H36.1755C36.2948 1.14502 36.3993 1.24919 36.3993 1.36825V8.58604C36.3993 12.3065 34.5495 14.3454 30.9991 14.3454C27.4785 14.3454 25.6138 12.3065 25.6138 8.58604V1.36825C25.6138 1.24919 25.7182 1.14502 25.8375 1.14502Z" fill="#343434"/>
<path d="M40.7256 14.018V1.36825C40.7256 1.24919 40.83 1.14502 40.9494 1.14502H45.4992C49.5867 1.14502 52.3017 3.82379 52.3017 7.67824C52.3017 11.5178 49.5867 14.2412 45.4992 14.2412H40.9494C40.8151 14.2412 40.7256 14.137 40.7256 14.018ZM43.5301 11.9047H45.4992C48.0054 11.9047 49.4226 10.1635 49.4226 7.67824C49.4226 5.17805 48.0203 3.4815 45.4992 3.4815H43.5301V11.9047Z" fill="#343434"/>
<path d="M55.9567 1.14502H58.3286C58.4479 1.14502 58.5523 1.24919 58.5523 1.36825V14.018C58.5523 14.137 58.4479 14.2412 58.3286 14.2412H55.9567C55.8373 14.2412 55.7329 14.137 55.7329 14.018V1.36825C55.7329 1.24919 55.8373 1.14502 55.9567 1.14502Z" fill="#343434"/>
<path d="M68.4722 14.346C64.6085 14.346 61.968 11.5036 61.968 7.69377C61.968 3.88397 64.6085 1.0415 68.4722 1.0415C72.3358 1.0415 74.9763 3.88397 74.9763 7.69377C74.9763 11.5036 72.3358 14.346 68.4722 14.346ZM68.4722 11.9798C70.6651 11.9798 72.0971 10.1642 72.0971 7.69377C72.0971 5.22335 70.6651 3.40775 68.4722 3.40775C66.2643 3.40775 64.8322 5.22335 64.8322 7.69377C64.8322 10.1642 66.2643 11.9798 68.4722 11.9798Z" fill="#343434"/>
<path d="M84.0761 14.346C80.481 14.346 77.9449 11.5631 77.9449 7.69377C77.9449 3.82444 80.481 1.0415 84.0761 1.0415C87.7011 1.0415 90.2073 3.82444 90.2073 7.69377C90.2073 11.5631 87.6862 14.346 84.0761 14.346ZM84.0761 13.4085C87.0895 13.4085 89.178 11.0274 89.178 7.67889C89.178 4.33043 87.0895 1.94931 84.0761 1.94931C81.0777 1.94931 78.9892 4.33043 78.9892 7.67889C78.9892 11.0274 81.0777 13.4085 84.0761 13.4085Z" fill="#343434"/>
<path d="M93.6235 14.018V1.36825C93.6235 1.24919 93.728 1.14502 93.8473 1.14502H94.4589C94.5335 1.14502 94.6081 1.17479 94.6379 1.2492L102.335 12.4107V1.36825C102.335 1.24919 102.44 1.14502 102.559 1.14502H103.111C103.231 1.14502 103.335 1.24919 103.335 1.36825V14.018C103.335 14.137 103.231 14.2412 103.111 14.2412H102.5C102.425 14.2412 102.35 14.2114 102.321 14.137L94.623 2.97551V14.018C94.623 14.137 94.5186 14.2412 94.3992 14.2412H93.8473C93.728 14.2412 93.6235 14.137 93.6235 14.018Z" fill="#343434"/>
<path d="M107.9 1.14502H115.537C115.657 1.14502 115.761 1.24919 115.761 1.36825V1.85936C115.761 1.97842 115.657 2.08259 115.537 2.08259H108.69V7.08295H114.389C114.508 7.08295 114.613 7.18713 114.613 7.30619V7.79729C114.613 7.91635 114.508 8.02052 114.389 8.02052H108.69V13.3036H115.776C115.895 13.3036 116 13.4078 116 13.5269V14.018C116 14.137 115.895 14.2412 115.776 14.2412H107.9C107.78 14.2412 107.676 14.137 107.676 14.018V1.36825C107.676 1.24919 107.765 1.14502 107.9 1.14502Z" fill="#343434"/>
<path d="M13.1725 2.67901L18.9755 1.25033C19.1097 1.22057 19.244 1.30986 19.244 1.45868V13.528C19.244 13.6173 19.1843 13.7066 19.0799 13.7364L16.5886 14.3465C16.4544 14.3763 16.3201 14.287 16.3201 14.1382V4.65832C16.3201 4.52438 16.1859 4.42021 16.0516 4.44997L13.2769 5.13454C13.1426 5.1643 13.0084 5.07502 13.0084 4.9262V2.88736C13.0084 2.78318 13.083 2.69389 13.1725 2.67901Z" fill="#00AEEF"/>
<path d="M22.8242 0.565512V2.61924C22.8242 2.70853 22.7646 2.79782 22.6601 2.82758L20.5567 3.34845C20.4225 3.37821 20.2882 3.27405 20.2882 3.14011V1.08638C20.2882 0.997091 20.3479 0.9078 20.4523 0.878036L22.5557 0.357165C22.7049 0.3274 22.8242 0.431574 22.8242 0.565512Z" fill="#00AEEF"/>
</svg>
